<mxfile host="app.diagrams.net" modified="2024-04-10T00:25:45.424Z" agent="Mozilla/5.0 (Macintosh; Intel Mac OS X 10_15_7) AppleWebKit/537.36 (KHTML, like Gecko) Chrome/123.0.0.0 Safari/537.36" version="24.2.3" etag="1qJUq5npLnPHmlEjui3k" type="github">
  <diagram name="PÃ¡gina-1" id="A6UTQsXR4WOYyP9YNax3">
    <mxGraphModel>
      <root>
        <mxCell id="0" />
        <mxCell id="1" parent="0" />
      </root>
    </mxGraphModel>
  </diagram>
</mxfile>
